<svg width="24" height="24" viewBox="0 0 24 24" fill="none" xmlns="http://www.w3.org/2000/svg">
<g opacity="0.9" filter="url(#filter0_d_3_161)">
<path d="M12.9806 19.4261C17.0731 19.4261 20.3908 16.1085 20.3908 12.0159C20.3908 7.92333 17.0731 4.60565 12.9806 4.60565C8.88799 4.60565 5.57031 7.92333 5.57031 12.0159C5.57031 16.1085 8.88799 19.4261 12.9806 19.4261Z" fill="#5E60CE"/>
<path d="M12.9645 4.85955C14.3768 4.85955 15.7573 5.27834 16.9316 6.06294C18.1058 6.84755 19.021 7.96275 19.5615 9.2675C20.1019 10.5723 20.2433 12.008 19.9678 13.3931C19.6923 14.7782 19.0122 16.0505 18.0136 17.0491C17.015 18.0478 15.7427 18.7278 14.3576 19.0033C12.9724 19.2789 11.5367 19.1375 10.232 18.597C8.92722 18.0566 7.81202 17.1413 7.02742 15.9671C6.24281 14.7928 5.82403 13.4123 5.82403 12C5.83134 10.1085 6.58599 8.29656 7.92351 6.95904C9.26103 5.62152 11.073 4.86687 12.9645 4.85955ZM12.9645 3.27278C11.24 3.27983 9.55616 3.79767 8.12568 4.76091C6.69519 5.72416 5.58215 7.08962 4.92707 8.68493C4.272 10.2802 4.10426 12.0339 4.44502 13.7244C4.78579 15.415 5.61978 16.9667 6.84172 18.1837C8.06366 19.4006 9.61876 20.2283 11.3107 20.5621C13.0026 20.896 14.7556 20.7211 16.3482 20.0595C17.9408 19.3979 19.3017 18.2793 20.2591 16.8449C21.2165 15.4105 21.7275 13.7246 21.7275 12C21.7275 10.851 21.5006 9.71318 21.0598 8.652C20.619 7.59083 19.9729 6.62715 19.1587 5.81628C18.3445 5.00541 17.3782 4.36331 16.3153 3.92683C15.2523 3.49035 14.1136 3.26808 12.9645 3.27278Z" fill="#5E60CE"/>
<path d="M16.4311 9.34209L12.0991 13.674L9.61667 11.1916L8.78076 12.0275L12.0991 15.3458L17.267 10.178L16.4311 9.34209Z" fill="#F2F2F2"/>
</g>
<defs>
<filter id="filter0_d_3_161" x="-3" y="0" width="32" height="32" filterUnits="userSpaceOnUse" color-interpolation-filters="sRGB">
<feFlood flood-opacity="0" result="BackgroundImageFix"/>
<feColorMatrix in="SourceAlpha" type="matrix" values="0 0 0 0 0 0 0 0 0 0 0 0 0 0 0 0 0 0 127 0" result="hardAlpha"/>
<feOffset dy="4"/>
<feGaussianBlur stdDeviation="2"/>
<feComposite in2="hardAlpha" operator="out"/>
<feColorMatrix type="matrix" values="0 0 0 0 0 0 0 0 0 0 0 0 0 0 0 0 0 0 0.25 0"/>
<feBlend mode="normal" in2="BackgroundImageFix" result="effect1_dropShadow_3_161"/>
<feBlend mode="normal" in="SourceGraphic" in2="effect1_dropShadow_3_161" result="shape"/>
</filter>
</defs>
</svg>
